<?xml version="1.0" standalone="no"?>
<!DOCTYPE svg PUBLIC "-//W3C//DTD SVG 20010904//EN"
 "http://www.w3.org/TR/2001/REC-SVG-20010904/DTD/svg10.dtd">
<svg version="1.0" xmlns="http://www.w3.org/2000/svg"
 width="16.000000pt" height="16.000000pt" viewBox="0 0 16.000000 16.000000"
 preserveAspectRatio="xMidYMid meet">
<metadata>
Created by potrace 1.11, written by Peter Selinger 2001-2013
</metadata>
<g transform="translate(0.000000,16.000000) scale(0.003636,-0.003636)"
fill="#000000" stroke="none">
<path d="M1975 4260 c-111 -16 -132 -19 -175 -29 -25 -5 -61 -13 -80 -16 -42
-8 -50 -10 -70 -18 -8 -3 -49 -15 -90 -28 -41 -12 -79 -24 -85 -28 -5 -3 -14
-6 -20 -7 -11 -2 -98 -41 -192 -85 -109 -52 -310 -186 -402 -268 -13 -11 -28
-21 -33 -21 -4 0 -8 -7 -8 -15 0 -8 -3 -15 -7 -15 -19 0 -165 -153 -249 -260
-89 -112 -244 -371 -245 -407 -1 -5 -4 -12 -9 -18 -10 -13 -79 -189 -83 -212
-1 -10 -6 -23 -10 -30 -4 -6 -8 -23 -9 -37 -1 -14 -5 -26 -9 -26 -3 0 -6 -6
-6 -12 0 -7 -5 -38 -12 -68 -18 -81 -21 -96 -36 -200 -17 -124 -17 -389 1
-515 7 -55 16 -117 19 -139 3 -21 7 -41 10 -45 5 -8 17 -68 18 -88 0 -7 3 -13
7 -13 4 0 7 -6 8 -12 4 -60 92 -291 155 -408 242 -448 609 -778 1067 -963 47
-19 110 -42 140 -51 30 -9 69 -21 85 -26 17 -5 46 -12 65 -15 19 -3 53 -11 75
-17 66 -17 755 -13 835 5 197 45 333 93 501 177 376 187 702 506 901 880 43
82 129 284 131 310 1 11 5 20 10 20 5 0 7 7 4 15 -4 8 -2 17 4 20 5 4 7 10 4
15 -3 5 0 12 6 15 5 4 8 13 5 21 -3 8 0 14 6 14 6 0 9 2 6 6 -3 3 -2 22 3 42
5 20 12 46 15 57 34 137 54 527 34 655 -5 30 -11 73 -14 95 -4 34 -12 75 -41
215 -2 8 -4 15 -5 15 -1 0 -3 8 -6 18 -8 35 -10 41 -31 95 -3 9 -7 19 -8 22
-5 23 -31 93 -47 130 -217 497 -591 873 -1089 1093 -94 42 -294 107 -328 107
-11 0 -23 5 -26 10 -4 6 -10 8 -14 6 -4 -3 -27 0 -52 5 -147 33 -479 48 -624
29z"/>
</g>
</svg>
